:SAMPLES-PER-SECOND 24
:FULLY-SPECIFIED
:DEGREES
516
root  17.0187 38.6012 24.3315 6.10779 7.63126 -2.88593
RightUpLeg  -15.0909 -9.56276 -15.2443
RightLeg  2.06419 4.76989 -4.29379
RightFoot  8.7978 -1.38894 8.1183
RightToes  -2.08645e-008 3.77894e-005 6.81332e-007
Spine  0.0418078 0.845337 0.476751
Spine1  10.5431 0.681547 0.725217
HEad  -33.5124 -2.8791 -1.45278
LeftShoulder1  7.58758 -13.3528 -38.8673
LeftArm  3.77351 34.0167 -27.2601
LeftForeArm  148.483 -76.0176 -137.434
LeftHand  -0.537869 -2.35915 8.26543
RightShoulder  4.32806 6.901 35.6855
RightArm  10.4073 -30.5166 32.6011
RightForeArm  143.358 78.1428 128.158
RightHand  0.915334 12.7438 5.38671
LeftUpLeg  -10.5187 1.56927 7.79327
LeftLeg  27.9782 4.24573 2.76963
LeftFoot  -17.6139 -0.729233 -15.0547
LeftToes  1.24767e-006 1.47042e-008 1.32732e-009
517
root  17.3468 40.0573 24.2984 7.15857 4.32825 -3.69989
RightUpLeg  -13.9157 -8.79268 -12.9044
RightLeg  1.71381 -1.04352 -2.35337
RightFoot  8.02644 -1.48426 9.00661
RightToes  -2.08645e-008 3.77894e-005 6.81332e-007
Spine  -2.92522 0.395373 -0.103375
Spine1  10.7381 -0.080843 1.87377
HEad  -29.6023 -0.181872 -0.469667
LeftShoulder1  7.26034 -13.0405 -37.7868
LeftArm  5.45137 33.1026 -27.8929
LeftForeArm  153.7 -74.4051 -142.892
LeftHand  -0.473806 -2.49001 7.19478
RightShoulder  4.27911 6.86419 35.3669
RightArm  13.212 -29.1707 33.511
RightForeArm  150.334 77.477 132.763
RightHand  1.51377 13.8331 8.60874
LeftUpLeg  -8.27883 3.77085 7.68951
LeftLeg  20.6196 6.42819 2.991
LeftFoot  -7.95936 0.513433 -15.6118
LeftToes  1.24767e-006 1.47042e-008 1.32732e-009
518
root  17.5212 41.3799 24.1756 7.25073 1.26279 -4.12976
RightUpLeg  -13.0827 -7.00028 -10.6109
RightLeg  6.72515 -5.40739 -2.1271
RightFoot  8.2719 -1.21306 7.33835
RightToes  -2.08645e-008 3.77894e-005 6.81332e-007
Spine  -3.54353 -0.0607274 -0.287474
Spine1  9.75604 -0.559506 1.93107
HEad  -26.4785 1.51676 1.15439
LeftShoulder1  6.95732 -12.787 -36.648
LeftArm  8.42848 30.2302 -26.9879
LeftForeArm  155.883 -73.5058 -145.303
LeftHand  -0.417261 -2.75541 6.17308
RightShoulder  4.18051 6.79322 34.7036
RightArm  15.5606 -27.1036 33.639
RightForeArm  150.413 77.3246 133.367
RightHand  1.59824 13.7086 9.18764
LeftUpLeg  -6.79718 6.19389 7.98076
LeftLeg  16.2946 6.86455 2.51592
LeftFoot  3.08124 2.06862 -16.4036
LeftToes  1.24767e-006 1.47042e-008 1.32732e-009
519
root  17.6676 42.0945 23.9674 6.18896 -1.48715 -4.67493
RightUpLeg  -12.1304 -6.19501 -8.55043
RightLeg  14.7782 -8.71075 -2.88082
RightFoot  9.10894 -0.951896 5.61362
RightToes  -2.08645e-008 3.77894e-005 6.81332e-007
Spine  -1.63178 -0.530201 -0.100438
Spine1  7.63935 -1.07727 2.07057
HEad  -24.4782 2.59149 2.25404
LeftShoulder1  6.64855 -12.5462 -35.3966
LeftArm  11.2315 26.7851 -26.4024
LeftForeArm  156.809 -72.2201 -147.987
LeftHand  -0.407638 -2.74056 6.04687
RightShoulder  4.03139 6.71326 33.5706
RightArm  18.2983 -24.8433 32.9235
RightForeArm  145.151 77.4327 131.683
RightHand  1.12028 12.5302 6.7787
LeftUpLeg  -5.8725 7.6129 8.90435
LeftLeg  16.0676 5.04446 1.84236
LeftFoot  8.7145 2.48943 -14.2998
LeftToes  1.24767e-006 1.47042e-008 1.32732e-009
520
root  17.9134 42.1345 23.6948 5.76428 -3.70181 -5.28198
RightUpLeg  -12.3585 -5.9263 -6.77315
RightLeg  24.2685 -8.91243 -4.55808
RightFoot  9.40332 -0.391406 2.50729
RightToes  -2.08645e-008 3.77894e-005 6.81332e-007
Spine  -0.145947 -1.0013 0.411407
Spine1  6.20945 -1.74248 3.16419
HEad  -23.7648 3.16819 2.95527
LeftShoulder1  6.28676 -12.1692 -34.1052
LeftArm  12.9772 22.4124 -27.0009
LeftForeArm  159.052 -70.8229 -150.687
LeftHand  -0.407135 -2.38476 6.28939
RightShoulder  3.83539 6.56536 32.2034
RightArm  19.1037 -23.1998 32.2831
RightForeArm  144.338 77.3463 131.838
RightHand  0.898373 11.5385 5.69947
LeftUpLeg  -6.32486 2.79001 9.48146
LeftLeg  17.5488 3.75115 1.67408
LeftFoot  7.61645 1.80098 -10.9733
LeftToes  1.24767e-006 1.47042e-008 1.32732e-009
521
root  18.1942 41.5223 23.4187 5.89026 -5.66714 -5.69336
RightUpLeg  -13.3648 -5.21196 -5.87003
RightLeg  33.8937 -8.02562 -5.99889
RightFoot  10.3864 0.237248 -0.911565
RightToes  -2.08645e-008 3.77894e-005 6.81332e-007
Spine  0.789006 -1.08822 0.674024
Spine1  5.60843 -2.04811 4.60437
HEad  -24.7877 2.93066 3.9884
LeftShoulder1  5.78878 -11.5503 -32.4539
LeftArm  13.3357 16.703 -29.0564
LeftForeArm  162.831 -69.6493 -152.924
LeftHand  -0.376526 -2.25021 5.924
RightShoulder  3.70249 6.4171 31.4288
RightArm  16.9281 -22.9414 31.0726
RightForeArm  149.364 76.3141 136.661
RightHand  0.811442 11.0472 5.2832
LeftUpLeg  -7.9947 -6.62107 10.1863
LeftLeg  21.2691 2.88418 1.57691
LeftFoot  2.65883 1.40295 -11.5192
LeftToes  1.24767e-006 1.47042e-008 1.32732e-009
522
root  18.3593 40.3189 23.141 5.7041 -8.53845 -4.9209
RightUpLeg  -12.9063 -4.19647 -6.67814
RightLeg  39.6675 -8.96117 -8.15521
RightFoot  6.99772 -0.584669 3.9179
RightToes  -2.08645e-008 3.77894e-005 6.81332e-007
Spine  1.63411 -0.495055 -1.19315
Spine1  5.95224 -1.72455 5.84972
HEad  -27.1486 2.55151 5.2959
LeftShoulder1  5.39953 -11.0253 -31.163
LeftArm  12.368 9.59348 -30.7119
LeftForeArm  165.151 -68.4431 -154.78
LeftHand  -0.368394 -2.25948 5.79439
RightShoulder  3.65087 6.33462 31.2154
RightArm  13.7478 -22.6257 29.9267
RightForeArm  149.566 75.639 138.804
RightHand  0.667051 10.7137 4.36729
LeftUpLeg  -9.38299 -9.59953 10.0509
LeftLeg  26.6743 -0.166941 0.247518
LeftFoot  -5.55829 0.761013 -14.3493
LeftToes  1.24767e-006 1.47042e-008 1.32732e-009
523
root  18.3403 39.0581 22.9427 5.60925 -12.1832 -2.20648
RightUpLeg  -10.5044 -2.75267 -9.73733
RightLeg  38.3769 -10.4838 -9.05572
RightFoot  -4.36476 -0.918151 14.6377
RightToes  -2.08645e-008 3.77894e-005 6.81332e-007
Spine  -0.165285 0.0743064 -6.02247
Spine1  8.77088 -1.54747 6.72924
HEad  -28.8543 3.00968 6.64098
LeftShoulder1  5.42186 -10.9619 -31.4816
LeftArm  10.1025 2.24229 -29.5032
LeftForeArm  165.914 -67.9483 -155.465
LeftHand  -0.44473 -1.88061 7.28821
RightShoulder  3.64062 6.26792 31.3663
RightArm  10.4929 -21.5125 30.461
RightForeArm  144.829 76.7922 134.027
RightHand  0.19199 10.6418 0.964701
LeftUpLeg  -9.32433 -5.96354 7.30372
LeftLeg  28.9712 -1.50091 -0.541367
LeftFoot  -14.3883 -0.294382 -14.5897
LeftToes  1.24767e-006 1.47042e-008 1.32732e-009
524
root  18.2561 38.3667 22.9561 5.93909 -15.6056 0.156128
RightUpLeg  -8.52004 -3.39551 -13.4736
RightLeg  33.2522 -6.8694 -5.12306
RightFoot  -13.7663 0.274862 19.1888
RightToes  -2.08645e-008 3.77894e-005 6.81332e-007
Spine  -4.34172 -0.263323 -8.85675
Spine1  12.8553 -1.84881 6.07636
HEad  -28.892 4.32706 6.92021
LeftShoulder1  5.84722 -11.3737 -33.3003
LeftArm  7.22592 -0.342334 -26.9042
LeftForeArm  167.304 -68.8344 -154.56
LeftHand  -0.538195 -1.49366 9.24272
RightShoulder  3.73802 6.29284 32.2713
RightArm  7.3169 -22.4838 31.5821
RightForeArm  145.066 77.4772 131.529
RightHand  0.0883387 11.1091 0.191152
LeftUpLeg  -8.05636 -4.76203 3.88278
LeftLeg  27.2039 2.13515 1.51526
LeftFoot  -19.3465 -0.818657 -13.2174
LeftToes  1.24767e-006 1.47042e-008 1.32732e-009
525
root  18.1767 38.736 23.1467 6.53503 -19.0052 -0.70697
RightUpLeg  -8.89559 -6.45421 -14.8797
RightLeg  31.2763 2.00829 1.09098
RightFoot  -11.3111 -0.067114 18.0364
RightToes  -2.08645e-008 3.77894e-005 6.81332e-007
Spine  -6.64803 -0.719728 -6.70253
Spine1  14.5401 -2.37356 5.79449
HEad  -28.0488 6.57856 5.1302
LeftShoulder1  6.34794 -11.9083 -35.1651
LeftArm  4.91868 5.73659 -27.5803
LeftForeArm  168.588 -69.4395 -153.958
LeftHand  -0.534569 -1.30709 9.42377
RightShoulder  3.89326 6.42469 33.329
RightArm  6.00375 -26.4808 31.2341
RightForeArm  151.404 75.8239 138.599
RightHand  0.284458 11.4399 1.52817
LeftUpLeg  -5.46221 -6.94707 3.62451
LeftLeg  23.249 7.68103 3.90184
LeftFoot  -17.2943 -0.643167 -14.1711
LeftToes  1.24767e-006 1.47042e-008 1.32732e-009
526
root  17.7741 39.8782 23.2833 7.15247 -22.7934 -2.51636
RightUpLeg  -10.745 -7.58065 -14.4625
RightLeg  31.0519 9.317 5.78362
RightFoot  -2.13224 -1.61781 19.7237
RightToes  -2.08645e-008 3.77894e-005 6.81332e-007
Spine  -6.6823 -0.942562 -6.65018
Spine1  13.7602 -3.51833 8.91979
HEad  -25.9207 9.97884 3.48601
LeftShoulder1  6.52714 -12.0982 -35.8018
LeftArm  3.11549 16.5983 -32.3282
LeftForeArm  167.404 -68.9466 -154.439
LeftHand  -0.47681 -1.23816 8.5044
RightShoulder  3.9759 6.52445 33.7613
RightArm  7.21383 -30.5776 29.6825
RightForeArm  154.044 73.5742 144.83
RightHand  0.284396 11.1217 1.56696
LeftUpLeg  -3.26812 -2.74601 6.17076
LeftLeg  19.2867 6.17351 2.81183
LeftFoot  -9.52205 0.332337 -17.2488
LeftToes  1.24767e-006 1.47042e-008 1.32732e-009
527
root  17.0553 41.064 23.3044 7.49133 -25.7924 -3.24072
RightUpLeg  -11.3305 -5.58774 -13.8205
RightLeg  28.0193 10.3754 5.74185
RightFoot  3.58368 -2.78724 21.3022
RightToes  -2.08645e-008 3.77894e-005 6.81332e-007
Spine  -6.10896 -1.62721 -8.89899
Spine1  12.0831 -4.86579 12.0203
HEad  -22.2134 13.4479 4.13911
LeftShoulder1  6.31708 -11.8644 -35.085
LeftArm  1.94585 26.9726 -36.8353
LeftForeArm  165.001 -68.0628 -155.216
LeftHand  -0.43059 -1.65937 7.2691
RightShoulder  4.05179 6.61865 34.1387
RightArm  9.04922 -34.0984 28.3001
RightForeArm  156.351 71.6793 148.863
RightHand  0.388065 11.1582 2.29287
LeftUpLeg  -3.08224 4.69561 9.05769
LeftLeg  18.6465 0.62059 0.614559
LeftFoot  1.11806 2.07005 -18.9828
LeftToes  1.24767e-006 1.47042e-008 1.32732e-009
528
root  16.4369 41.7628 23.2947 7.80994 -27.3971 -4.27142
RightUpLeg  -10.585 -2.82269 -12.7112
RightLeg  23.6358 5.67064 2.51671
RightFoot  4.26485 -2.42349 17.7168
RightToes  -2.08645e-008 3.77894e-005 6.81332e-007
Spine  -4.80277 -2.5295 -7.12198
Spine1  10.2903 -5.49943 11.3379
HEad  -19.8851 15.7982 4.83203
LeftShoulder1  6.06187 -11.6254 -34.0645
LeftArm  2.06457 34.426 -38.2992
LeftForeArm  164.403 -67.0915 -156.251
LeftHand  -0.313872 -2.26117 4.96059
RightShoulder  4.10286 6.67287 34.4259
RightArm  10.1849 -37.2985 27.7761
RightForeArm  159.055 69.5707 152.512
RightHand  0.663282 11.2265 4.18417
LeftUpLeg  -4.26628 3.78318 11.1335
LeftLeg  20.4261 0.989589 0.75766
LeftFoot  8.45433 3.01758 -17.5214
LeftToes  1.24767e-006 1.47042e-008 1.32732e-009
529
root  15.9233 41.8827 23.3021 8.55066 -29.2588 -5.28973
RightUpLeg  -10.8546 -0.554688 -11.8185
RightLeg  19.6192 -0.548153 -0.400959
RightFoot  4.61832 -1.59586 11.5912
RightToes  -2.08645e-008 3.77894e-005 6.81332e-007
Spine  -4.68771 -2.73124 -4.0139
Spine1  10.5389 -5.38396 9.74536
HEad  -21.0771 17.168 3.23942
LeftShoulder1  5.89349 -11.5033 -33.2747
LeftArm  3.08712 37.3538 -38.7349
LeftForeArm  165.328 -67.2642 -156.172
LeftHand  -0.202787 -2.89297 3.07323
RightShoulder  3.97374 6.52064 33.7541
RightArm  10.0101 -38.7628 28.3567
RightForeArm  160.092 68.1615 154.484
RightHand  0.593836 10.7042 3.84417
LeftUpLeg  -5.36665 -1.1634 12.0994
LeftLeg  19.4071 4.25127 1.94055
LeftFoot  8.72215 2.47947 -14.2312
LeftToes  1.24767e-006 1.47042e-008 1.32732e-009
530
root  15.3205 41.4004 23.2674 9.41675 -32.4189 -4.97321
RightUpLeg  -12.8463 1.45814 -12.34
RightLeg  16.7217 -3.29721 -1.46339
RightFoot  6.02095 -1.41229 9.50102
RightToes  -2.08645e-008 3.77894e-005 6.81332e-007
Spine  -5.30184 -2.09355 -3.69184
Spine1  11.1162 -4.61286 9.25943
HEad  -23.6729 18.1003 0.911816
LeftShoulder1  5.63324 -11.2352 -32.2247
LeftArm  4.683 37.337 -39.3629
LeftForeArm  165.827 -68.4994 -154.797
LeftHand  -0.151789 -3.36195 2.26015
RightShoulder  3.80512 6.31357 32.8768
RightArm  9.44154 -38.596 28.6234
RightForeArm  161.194 67.6223 155.259
RightHand  0.594265 10.48 3.91185
LeftUpLeg  -6.08389 -2.84996 11.763
LeftLeg  16.0427 4.8298 2.51217
LeftFoot  4.61307 1.86497 -13.4597
LeftToes  1.24767e-006 1.47042e-008 1.32732e-009
